<svg width="24" height="19" viewBox="0 0 24 19" fill="none" xmlns="http://www.w3.org/2000/svg">
<path d="M22.8962 13.8529C22.9937 13.3297 22.9937 12.7953 22.8962 12.2721L23.8638 11.7191C23.9763 11.6561 24.025 11.5262 23.9875 11.4037C23.7363 10.6021 23.305 9.8748 22.7424 9.27363C22.6561 9.18086 22.5174 9.15859 22.4049 9.22168L21.4373 9.77461C21.0285 9.42949 20.5597 9.1623 20.0534 8.98418V7.87832C20.0534 7.75215 19.9634 7.64082 19.8396 7.61484C19.0033 7.4293 18.1519 7.43672 17.3568 7.61484C17.2331 7.64082 17.1431 7.75215 17.1431 7.87832V8.98418C16.6368 9.1623 16.168 9.42949 15.7592 9.77461L14.7916 9.22168C14.6828 9.15859 14.5403 9.18086 14.454 9.27363C13.8915 9.8748 13.4602 10.6021 13.2089 11.4037C13.1714 11.5262 13.2239 11.6561 13.3327 11.7191L14.3003 12.2721C14.2027 12.7953 14.2027 13.3297 14.3003 13.8529L13.3327 14.4059C13.2201 14.4689 13.1714 14.5988 13.2089 14.7213C13.4602 15.5229 13.8915 16.2465 14.454 16.8514C14.5403 16.9441 14.679 16.9664 14.7916 16.9033L15.7592 16.3504C16.168 16.6955 16.6368 16.9627 17.1431 17.1408V18.2467C17.1431 18.3729 17.2331 18.4842 17.3568 18.5102C18.1932 18.6957 19.0445 18.6883 19.8396 18.5102C19.9634 18.4842 20.0534 18.3729 20.0534 18.2467V17.1408C20.5597 16.9627 21.0285 16.6955 21.4373 16.3504L22.4049 16.9033C22.5136 16.9664 22.6561 16.9441 22.7424 16.8514C23.305 16.2502 23.7363 15.5229 23.9875 14.7213C24.025 14.5988 23.9725 14.4689 23.8638 14.4059L22.8962 13.8529ZM18.602 14.8623C17.5969 14.8623 16.783 14.0533 16.783 13.0625C16.783 12.0717 17.6006 11.2627 18.602 11.2627C19.6033 11.2627 20.4209 12.0717 20.4209 13.0625C20.4209 14.0533 19.6071 14.8623 18.602 14.8623ZM8.40089 9.5C11.0524 9.5 13.2014 7.37363 13.2014 4.75C13.2014 2.12637 11.0524 0 8.40089 0C5.74936 0 3.60038 2.12637 3.60038 4.75C3.60038 7.37363 5.74936 9.5 8.40089 9.5ZM15.9467 17.9053C15.8604 17.8607 15.7742 17.8088 15.6917 17.7605L15.3954 17.9312C15.1703 18.0574 14.9153 18.1279 14.6603 18.1279C14.2515 18.1279 13.8577 17.9572 13.5764 17.6604C12.8901 16.9256 12.3651 16.0312 12.0688 15.0775C11.8625 14.4207 12.14 13.7268 12.7401 13.3816L13.0364 13.2109C13.0326 13.1145 13.0326 13.018 13.0364 12.9215L12.7401 12.7508C12.14 12.4094 11.8625 11.7117 12.0688 11.0549C12.1025 10.9473 12.1513 10.8396 12.1888 10.732C12.0463 10.7209 11.9075 10.6875 11.7612 10.6875H11.1349C10.3023 11.066 9.37599 11.2812 8.40089 11.2812C7.42578 11.2812 6.50319 11.066 5.66685 10.6875H5.04053C2.25774 10.6875 0 12.9215 0 15.675V17.2188C0 18.2021 0.806335 19 1.80019 19H15.0016C15.3804 19 15.7329 18.8813 16.0217 18.6846C15.9767 18.5436 15.9467 18.3988 15.9467 18.2467V17.9053Z" fill="#CBD5E0"/>
</svg>
