<svg width="24" height="24" viewBox="0 0 24 24" fill="none" xmlns="http://www.w3.org/2000/svg">
<path d="M23.1429 20.5714H0.857143C0.629814 20.5714 0.411797 20.6617 0.251051 20.8225C0.0903059 20.9832 0 21.2012 0 21.4286L0 23.1429C0 23.3702 0.0903059 23.5882 0.251051 23.7489C0.411797 23.9097 0.629814 24 0.857143 24H23.1429C23.3702 24 23.5882 23.9097 23.7489 23.7489C23.9097 23.5882 24 23.3702 24 23.1429V21.4286C24 21.2012 23.9097 20.9832 23.7489 20.8225C23.5882 20.6617 23.3702 20.5714 23.1429 20.5714ZM23.1429 13.7143H0.857143C0.629814 13.7143 0.411797 13.8046 0.251051 13.9653C0.0903059 14.1261 0 14.3441 0 14.5714L0 16.2857C0 16.513 0.0903059 16.7311 0.251051 16.8918C0.411797 17.0526 0.629814 17.1429 0.857143 17.1429H23.1429C23.3702 17.1429 23.5882 17.0526 23.7489 16.8918C23.9097 16.7311 24 16.513 24 16.2857V14.5714C24 14.3441 23.9097 14.1261 23.7489 13.9653C23.5882 13.8046 23.3702 13.7143 23.1429 13.7143ZM23.1429 6.85714H0.857143C0.629814 6.85714 0.411797 6.94745 0.251051 7.10819C0.0903059 7.26894 0 7.48696 0 7.71429L0 9.42857C0 9.6559 0.0903059 9.87392 0.251051 10.0347C0.411797 10.1954 0.629814 10.2857 0.857143 10.2857H23.1429C23.3702 10.2857 23.5882 10.1954 23.7489 10.0347C23.9097 9.87392 24 9.6559 24 9.42857V7.71429C24 7.48696 23.9097 7.26894 23.7489 7.10819C23.5882 6.94745 23.3702 6.85714 23.1429 6.85714ZM23.1429 0H0.857143C0.629814 0 0.411797 0.0903058 0.251051 0.251051C0.0903059 0.411797 0 0.629814 0 0.857143L0 2.57143C0 2.79876 0.0903059 3.01677 0.251051 3.17752C0.411797 3.33827 0.629814 3.42857 0.857143 3.42857H23.1429C23.3702 3.42857 23.5882 3.33827 23.7489 3.17752C23.9097 3.01677 24 2.79876 24 2.57143V0.857143C24 0.629814 23.9097 0.411797 23.7489 0.251051C23.5882 0.0903058 23.3702 0 23.1429 0Z" fill="black"/>
</svg>
