<svg width="24" height="24" viewBox="0 0 24 24" fill="#CBD5E0" xmlns="http://www.w3.org/2000/svg">
<g clip-path="url(#clip0_878_2398)">
<path d="M17.3333 9.33329C17.3333 5.64996 13.4542 2.66663 8.66667 2.66663C3.87917 2.66663 0 5.64996 0 9.33329C0 10.7625 0.5875 12.0791 1.58333 13.1666C1.025 14.425 0.104167 15.425 0.0916667 15.4375C0 15.5333 -0.025 15.675 0.0291667 15.8C0.0833333 15.925 0.2 16 0.333333 16C1.85833 16 3.12083 15.4875 4.02917 14.9583C5.37083 15.6125 6.95833 16 8.66667 16C13.4542 16 17.3333 13.0166 17.3333 9.33329ZM22.4167 18.5C23.4125 17.4166 24 16.0958 24 14.6666C24 11.8791 21.7708 9.49162 18.6125 8.49579C18.65 8.77079 18.6667 9.04996 18.6667 9.33329C18.6667 13.7458 14.1792 17.3333 8.66667 17.3333C8.21667 17.3333 7.77917 17.3 7.34583 17.2541C8.65833 19.65 11.7417 21.3333 15.3333 21.3333C17.0417 21.3333 18.6292 20.95 19.9708 20.2916C20.8792 20.8208 22.1417 21.3333 23.6667 21.3333C23.8 21.3333 23.9208 21.2541 23.9708 21.1333C24.025 21.0125 24 20.8708 23.9083 20.7708C23.8958 20.7583 22.975 19.7625 22.4167 18.5Z" fill="#CBD5E0"/>
</g>
<defs>
<clipPath id="clip0_878_2398">
<rect width="24" height="24" fill="white"/>
</clipPath>
</defs>
</svg>
