<svg width="24" height="24" viewBox="0 0 24 24" fill="#CBD5E0" xmlns="http://www.w3.org/2000/svg">
<g clip-path="url(#clip0_878_2395)">
<path d="M0 19.3333C0 20.4375 0.895833 21.3333 2 21.3333H22C23.1042 21.3333 24 20.4375 24 19.3333V12H0V19.3333ZM8 16.5C8 16.225 8.225 16 8.5 16H14.1667C14.4417 16 14.6667 16.225 14.6667 16.5V18.1666C14.6667 18.4416 14.4417 18.6666 14.1667 18.6666H8.5C8.225 18.6666 8 18.4416 8 18.1666V16.5ZM2.66667 16.5C2.66667 16.225 2.89167 16 3.16667 16H6.16667C6.44167 16 6.66667 16.225 6.66667 16.5V18.1666C6.66667 18.4416 6.44167 18.6666 6.16667 18.6666H3.16667C2.89167 18.6666 2.66667 18.4416 2.66667 18.1666V16.5ZM24 4.66663V6.66663H0V4.66663C0 3.56246 0.895833 2.66663 2 2.66663H22C23.1042 2.66663 24 3.56246 24 4.66663Z" fill="#CBD5E0"/>
</g>
<defs>
<clipPath id="clip0_878_2395">
<rect width="24" height="24" fill="white"/>
</clipPath>
</defs>
</svg>
