<svg width="24" height="24" viewBox="0 0 24 24" fill="none" xmlns="http://www.w3.org/2000/svg">
<g clip-path="url(#clip0_878_2492)">
<path d="M23.2935 4.44223C21.8389 3.8321 20.3831 3.59998 18.9281 3.59998C14.3093 3.5996 9.69075 5.93773 5.07188 5.93773C3.9135 5.93773 2.75588 5.79073 1.5975 5.42323C1.46738 5.38198 1.33688 5.36248 1.20938 5.36248C0.564 5.36248 0 5.86198 0 6.55535V18.4526C0 18.9262 0.271125 19.3751 0.7065 19.5573C2.16113 20.1679 3.61688 20.4 5.07188 20.4C9.69075 20.4 14.3096 18.0618 18.9285 18.0618C20.0869 18.0618 21.2445 18.2088 22.4029 18.5763C22.533 18.6176 22.6635 18.6371 22.791 18.6371C23.4364 18.6371 24.0004 18.1376 24.0004 17.4442V5.54735C24 5.07335 23.7289 4.62485 23.2935 4.44223ZM1.8 7.35823C2.5545 7.54723 3.342 7.6421 4.152 7.6931C3.9315 8.79523 2.9625 9.62585 1.8 9.62585V7.35823ZM1.8 18.0457V16.254C3.08888 16.254 4.13175 17.2766 4.18913 18.5565C3.34425 18.4886 2.5545 18.3198 1.8 18.0457ZM12 15.6C10.3429 15.6 9 13.9879 9 12C9 10.0117 10.3433 8.39998 12 8.39998C13.6568 8.39998 15 10.0117 15 12C15 13.9886 13.6564 15.6 12 15.6ZM22.2 16.6417C21.543 16.4771 20.8609 16.3848 20.163 16.3252C20.3831 15.3472 21.1943 14.6047 22.2 14.4772V16.6417ZM22.2 7.7876C21.0416 7.64098 20.1428 6.67385 20.1071 5.47948C20.8399 5.56085 21.5355 5.7131 22.2 5.95423V7.7876Z" fill="#CBD5E0"/>
</g>
<defs>
<clipPath id="clip0_878_2492">
<rect width="24" height="24" fill="white"/>
</clipPath>
</defs>
</svg>
